<svg xmlns="http://www.w3.org/2000/svg" viewBox="0 0 1420 720" width="100%" height="100%" style="background-color: #ffffff; font-family: -apple-system, BlinkMacSystemFont, 'Segoe UI', Roboto, Helvetica, Arial, sans-serif;">
  <defs>
    <marker id="arrow" viewBox="0 0 10 10" refX="9" refY="5" markerWidth="6" markerHeight="6" orient="auto">
      <path d="M 0 1 L 10 5 L 0 9 z" fill="#333333" />
    </marker>
    <marker id="msg-arrow" viewBox="0 0 10 10" refX="9" refY="5" markerWidth="6" markerHeight="6" orient="auto">
      <path d="M 0 1 L 10 5 L 0 9 z" fill="#ffffff" stroke="#333333" stroke-width="1.5" />
    </marker>
    <marker id="msg-circle" viewBox="0 0 10 10" refX="5" refY="5" markerWidth="6" markerHeight="6" orient="auto">
      <circle cx="5" cy="5" r="3" fill="#ffffff" stroke="#333333" stroke-width="1.5" />
    </marker>
    <filter id="shadow" x="-5%" y="-5%" width="110%" height="110%">
      <feDropShadow dx="1" dy="2" stdDeviation="2" flood-opacity="0.08"/>
    </filter>
  </defs>
  <text x="30" y="35" font-size="20" font-weight="700" fill="#1e293b">BPMN 2.0: Процес «Проходження тесту» (ЕдуПортал)</text>
  <text x="30" y="55" font-size="12" fill="#64748b">Команда EduGuard | Автор: 5ani0chek (ІТ) | Рецензент: Vov4ik (ТА)</text>
  <g transform="translate(30, 70)">
    <rect x="0" y="0" width="1350" height="280" rx="4" fill="#f8fafc" stroke="#64748b" stroke-width="2"/>
    <rect x="0" y="0" width="40" height="280" rx="4" fill="#e2e8f0" stroke="#64748b" stroke-width="2"/>
    <text x="-140" y="25" font-size="14" font-weight="600" fill="#334155" transform="rotate(-90)" text-anchor="middle">Студент</text>
    <circle cx="85" cy="140" r="18" fill="#ecfdf5" stroke="#059669" stroke-width="2"/>
    <text x="85" y="175" font-size="11" text-anchor="middle" fill="#334155">Бажання пройти тест</text>
    <path d="M 103 140 L 150 140" stroke="#333" stroke-width="1.5" marker-end="url(#arrow)"/>
    <g transform="translate(150, 100)" filter="url(#shadow)">
      <rect width="130" height="80" rx="8" fill="#ffffff" stroke="#3b82f6" stroke-width="1.5"/>
      <path d="M 10 15 L 25 15 L 25 27 L 10 27 Z M 10 15 L 17.5 21 L 25 15" fill="#3b82f6" stroke="#3b82f6" stroke-width="1"/>
      <text x="65" y="38" font-size="11" text-anchor="middle" font-weight="500" fill="#1e293b">Натиснути</text>
      <text x="65" y="55" font-size="11" text-anchor="middle" font-weight="500" fill="#1e293b">Почати тест</text>
    </g>
    <path d="M 280 140 L 330 140" stroke="#333" stroke-width="1.5" marker-end="url(#arrow)"/>
    <g transform="translate(330, 115)">
      <polygon points="25,0 50,25 25,50 0,25" fill="#fef3c7" stroke="#d97706" stroke-width="1.5"/>
      <circle cx="25" cy="25" r="14" fill="none" stroke="#d97706" stroke-width="1"/>
      <polygon points="25,14 34,21 31,31 19,31 16,21" fill="none" stroke="#d97706" stroke-width="1.2"/>
    </g>
    <path d="M 355 115 L 355 50 L 420 50" stroke="#333" stroke-width="1.5" marker-end="url(#arrow)"/>
    <g transform="translate(420, 32)">
      <circle cx="18" cy="18" r="18" fill="#fee2e2" stroke="#dc2626" stroke-width="1.5"/>
      <circle cx="18" cy="18" r="14" fill="none" stroke="#dc2626" stroke-width="1"/>
      <path d="M 10 12 L 26 12 L 26 24 L 10 24 Z M 10 12 L 18 18 L 26 12" fill="none" stroke="#dc2626" stroke-width="1"/>
      <text x="18" y="48" font-size="10" text-anchor="middle" fill="#991b1b">Спроб немає</text>
    </g>
    <path d="M 456 50 L 510 50" stroke="#333" stroke-width="1.5" marker-end="url(#arrow)"/>
    <g transform="translate(510, 32)">
      <circle cx="18" cy="18" r="18" fill="#fee2e2" stroke="#dc2626" stroke-width="3"/>
      <text x="18" y="48" font-size="10" text-anchor="middle" fill="#991b1b">Доступ закрито</text>
    </g>
    <path d="M 380 140 L 430 140" stroke="#333" stroke-width="1.5" marker-end="url(#arrow)"/>
    <g transform="translate(430, 80)">
      <rect width="360" height="170" rx="8" fill="#ffffff" stroke="#6366f1" stroke-width="2"/>
      <text x="15" y="25" font-size="11" font-weight="700" fill="#4338ca">Підпроцес опрацювання питань тесту</text>
      <circle cx="40" cy="95" r="14" fill="#ecfdf5" stroke="#059669" stroke-width="1.5"/>
      <path d="M 54 95 L 80 95" stroke="#333" stroke-width="1.5" marker-end="url(#arrow)"/>
      <g transform="translate(80, 65)">
        <rect width="105" height="60" rx="6" fill="#f8fafc" stroke="#6366f1" stroke-width="1.5"/>
        <text x="52" y="26" font-size="10" text-anchor="middle" fill="#1e293b">Обрати варіант</text>
        <text x="52" y="42" font-size="10" text-anchor="middle" fill="#1e293b">відповіді</text>
      </g>
      <path d="M 185 95 L 210 95" stroke="#333" stroke-width="1.5" marker-end="url(#arrow)"/>
      <g transform="translate(210, 65)">
        <rect width="105" height="60" rx="6" fill="#f8fafc" stroke="#6366f1" stroke-width="1.5"/>
        <text x="52" y="26" font-size="10" text-anchor="middle" fill="#1e293b">Зберегти проміжну</text>
        <text x="52" y="42" font-size="10" text-anchor="middle" fill="#1e293b">відповідь</text>
      </g>
      <path d="M 315 95 L 335 95" stroke="#333" stroke-width="1.5" marker-end="url(#arrow)"/>
      <circle cx="345" cy="95" r="10" fill="#ecfdf5" stroke="#059669" stroke-width="2"/>
    </g>
    <path d="M 790 165 L 840 165" stroke="#333" stroke-width="1.5" marker-end="url(#arrow)"/>
    <g transform="translate(840, 140)">
      <polygon points="25,0 50,25 25,50 0,25" fill="#fef3c7" stroke="#d97706" stroke-width="1.5"/>
      <circle cx="25" cy="25" r="14" fill="none" stroke="#d97706" stroke-width="1"/>
      <polygon points="25,14 34,21 31,31 19,31 16,21" fill="none" stroke="#d97706" stroke-width="1.2"/>
    </g>
    <path d="M 865 140 L 865 110 L 920 110" stroke="#333" stroke-width="1.5" marker-end="url(#arrow)"/>
    <g transform="translate(920, 92)">
      <circle cx="18" cy="18" r="18" fill="#f1f5f9" stroke="#475569" stroke-width="1.5"/>
      <circle cx="18" cy="18" r="14" fill="none" stroke="#475569" stroke-width="1"/>
      <text x="18" y="48" font-size="10" text-anchor="middle" fill="#334155">Завершити</text>
    </g>
    <path d="M 865 190 L 865 220 L 920 220" stroke="#333" stroke-width="1.5" marker-end="url(#arrow)"/>
    <g transform="translate(920, 202)">
      <circle cx="18" cy="18" r="18" fill="#fffbeb" stroke="#d97706" stroke-width="1.5"/>
      <circle cx="18" cy="18" r="14" fill="none" stroke="#d97706" stroke-width="1"/>
      <circle cx="18" cy="18" r="8" fill="none" stroke="#d97706" stroke-width="1"/>
      <line x1="18" y1="18" x2="18" y2="13" stroke="#d97706" stroke-width="1.5"/>
      <line x1="18" y1="18" x2="22" y2="18" stroke="#d97706" stroke-width="1.5"/>
      <text x="18" y="48" font-size="10" text-anchor="middle" fill="#92400e">Таймер</text>
    </g>
    <path d="M 956 110 L 1000 110 L 1000 140 L 1020 140" stroke="#333" stroke-width="1.5"/>
    <path d="M 956 220 L 1000 220 L 1000 160 L 1020 160" stroke="#333" stroke-width="1.5" marker-end="url(#arrow)"/>
    <g transform="translate(1020, 110)" filter="url(#shadow)">
      <rect width="130" height="80" rx="8" fill="#ffffff" stroke="#3b82f6" stroke-width="1.5"/>
      <path d="M 10 15 L 25 15 L 25 27 L 10 27 Z M 10 15 L 17.5 21 L 25 15" fill="#3b82f6" stroke="#3b82f6" stroke-width="1"/>
      <text x="65" y="38" font-size="11" text-anchor="middle" font-weight="500" fill="#1e293b">Відправити бланк</text>
      <text x="65" y="55" font-size="11" text-anchor="middle" font-weight="500" fill="#1e293b">відповідей</text>
    </g>
    <g transform="translate(1060, 30)">
      <path d="M 0 0 L 25 0 L 35 10 L 35 45 L 0 45 Z" fill="#fff" stroke="#64748b" stroke-width="1.5"/>
      <path d="M 25 0 L 25 10 L 35 10" fill="none" stroke="#64748b" stroke-width="1.5"/>
      <text x="17" y="56" font-size="10" text-anchor="middle" fill="#475569">Бланк</text>
      <path d="M 17 45 L 17 80" stroke="#64748b" stroke-dasharray="3,3" stroke-width="1"/>
    </g>
    <path d="M 1150 150 L 1190 150" stroke="#333" stroke-width="1.5" marker-end="url(#arrow)"/>
    <g transform="translate(1190, 132)">
      <circle cx="18" cy="18" r="18" fill="#ecfdf5" stroke="#059669" stroke-width="1.5"/>
      <circle cx="18" cy="18" r="14" fill="none" stroke="#059669" stroke-width="1"/>
      <path d="M 10 12 L 26 12 L 26 24 L 10 24 Z M 10 12 L 18 18 L 26 12" fill="none" stroke="#059669" stroke-width="1"/>
      <text x="18" y="48" font-size="10" text-anchor="middle" fill="#065f46">Бал отримано</text>
    </g>
    <path d="M 1226 150 L 1270 150" stroke="#333" stroke-width="1.5" marker-end="url(#arrow)"/>
    <g transform="translate(1270, 132)">
      <circle cx="18" cy="18" r="18" fill="#ecfdf5" stroke="#059669" stroke-width="3"/>
      <text x="18" y="48" font-size="10" text-anchor="middle" fill="#065f46">Тест завершено</text>
    </g>
  </g>
  <g transform="translate(30, 390)">
    <rect x="0" y="0" width="1350" height="280" rx="4" fill="#ffffff" stroke="#64748b" stroke-width="2"/>
    <rect x="0" y="0" width="40" height="280" rx="4" fill="#e2e8f0" stroke="#64748b" stroke-width="2"/>
    <text x="-140" y="25" font-size="14" font-weight="600" fill="#334155" transform="rotate(-90)" text-anchor="middle">Система LMS (ЕдуПортал)</text>
    <g transform="translate(80, 102)">
      <circle cx="18" cy="18" r="18" fill="#eff6ff" stroke="#2563eb" stroke-width="2"/>
      <path d="M 10 12 L 26 12 L 26 24 L 10 24 Z M 10 12 L 18 18 L 26 12" fill="none" stroke="#2563eb" stroke-width="1"/>
      <text x="18" y="48" font-size="10" text-anchor="middle" fill="#1e40af">Запит на тест</text>
    </g>
    <path d="M 116 120 L 160 120" stroke="#333" stroke-width="1.5" marker-end="url(#arrow)"/>
    <g transform="translate(160, 80)" filter="url(#shadow)">
      <rect width="130" height="80" rx="8" fill="#f8fafc" stroke="#3b82f6" stroke-width="1.5"/>
      <text x="65" y="38" font-size="11" text-anchor="middle" font-weight="500" fill="#1e293b">Перевірити дату</text>
      <text x="65" y="55" font-size="11" text-anchor="middle" font-weight="500" fill="#1e293b">та ліміт спроб</text>
    </g>
    <path d="M 290 120 L 340 120" stroke="#333" stroke-width="1.5" marker-end="url(#arrow)"/>
    <g transform="translate(340, 95)">
      <polygon points="25,0 50,25 25,50 0,25" fill="#fef3c7" stroke="#d97706" stroke-width="1.5"/>
      <text x="25" y="30" font-size="16" text-anchor="middle" font-weight="700" fill="#b45309">×</text>
      <text x="25" y="-8" font-size="10" text-anchor="middle" fill="#92400e">Спроби є?</text>
    </g>
    <path d="M 365 145 L 365 210 L 410 210" stroke="#333" stroke-width="1.5" marker-end="url(#arrow)"/>
    <text x="370" y="180" font-size="10" fill="#dc2626">Ні</text>
    <g transform="translate(410, 170)" filter="url(#shadow)">
      <rect width="130" height="70" rx="8" fill="#ffffff" stroke="#ef4444" stroke-width="1.5"/>
      <path d="M 10 12 L 22 12 L 22 22 L 10 22 Z M 10 12 L 16 17 L 22 12" fill="#ef4444" stroke="#ef4444" stroke-width="1"/>
      <text x="65" y="35" font-size="10" text-anchor="middle" font-weight="500" fill="#1e293b">Надіслати відмову</text>
      <text x="65" y="50" font-size="10" text-anchor="middle" font-weight="500" fill="#1e293b">про ліміт спроб</text>
    </g>
    <path d="M 540 205 L 580 205" stroke="#333" stroke-width="1.5" marker-end="url(#arrow)"/>
    <g transform="translate(580, 187)">
      <circle cx="18" cy="18" r="18" fill="#fee2e2" stroke="#dc2626" stroke-width="3"/>
      <text x="18" y="48" font-size="10" text-anchor="middle" fill="#991b1b">Заблоковано</text>
    </g>
    <path d="M 390 120 L 450 120" stroke="#333" stroke-width="1.5" marker-end="url(#arrow)"/>
    <text x="410" y="110" font-size="10" fill="#059669">Так</text>
    <g transform="translate(450, 80)" filter="url(#shadow)">
      <rect width="140" height="80" rx="8" fill="#ffffff" stroke="#3b82f6" stroke-width="1.5"/>
      <text x="70" y="38" font-size="11" text-anchor="middle" font-weight="500" fill="#1e293b">Згенерувати сторінки</text>
      <text x="70" y="55" font-size="11" text-anchor="middle" font-weight="500" fill="#1e293b">питань і таймер</text>
    </g>
    <path d="M 590 120 L 800 120" stroke="#333" stroke-width="1.5" marker-end="url(#arrow)"/>
    <g transform="translate(800, 80)" filter="url(#shadow)">
      <rect width="140" height="80" rx="8" fill="#ffffff" stroke="#3b82f6" stroke-width="1.5"/>
      <text x="70" y="38" font-size="11" text-anchor="middle" font-weight="500" fill="#1e293b">Розрахувати бали</text>
      <text x="70" y="55" font-size="11" text-anchor="middle" font-weight="500" fill="#1e293b">(QuizScorer)</text>
    </g>
    <path d="M 940 120 L 980 120" stroke="#333" stroke-width="1.5" marker-end="url(#arrow)"/>
    <g transform="translate(980, 80)" filter="url(#shadow)">
      <rect width="130" height="80" rx="8" fill="#ffffff" stroke="#3b82f6" stroke-width="1.5"/>
      <text x="65" y="38" font-size="11" text-anchor="middle" font-weight="500" fill="#1e293b">Записати оцінку</text>
      <text x="65" y="55" font-size="11" text-anchor="middle" font-weight="500" fill="#1e293b">в журнал</text>
    </g>
    <path d="M 1110 120 L 1150 120" stroke="#333" stroke-width="1.5" marker-end="url(#arrow)"/>
    <g transform="translate(1150, 80)" filter="url(#shadow)">
      <rect width="120" height="80" rx="8" fill="#ffffff" stroke="#10b981" stroke-width="1.5"/>
      <path d="M 10 15 L 25 15 L 25 27 L 10 27 Z M 10 15 L 17.5 21 L 25 15" fill="#10b981" stroke="#10b981" stroke-width="1"/>
      <text x="60" y="38" font-size="11" text-anchor="middle" font-weight="500" fill="#1e293b">Надіслати бал</text>
      <text x="60" y="55" font-size="11" text-anchor="middle" font-weight="500" fill="#1e293b">та літеру ECTS</text>
    </g>
    <path d="M 1270 120 L 1300 120" stroke="#333" stroke-width="1.5" marker-end="url(#arrow)"/>
    <g transform="translate(1300, 102)">
      <circle cx="18" cy="18" r="18" fill="#ecfdf5" stroke="#059669" stroke-width="3"/>
      <text x="18" y="48" font-size="10" text-anchor="middle" fill="#065f46">Оцінено</text>
    </g>
  </g>
  <path d="M 245 250 L 245 492" stroke="#2563eb" stroke-dasharray="5,5" stroke-width="1.5" marker-start="url(#msg-circle)" marker-end="url(#msg-arrow)"/>
  <text x="250" y="375" font-size="10" fill="#2563eb" font-weight="600">Запит спроби</text>
  <path d="M 520 470 L 520 250" stroke="#2563eb" stroke-dasharray="5,5" stroke-width="1.5" marker-start="url(#msg-circle)" marker-end="url(#msg-arrow)"/>
  <text x="525" y="360" font-size="10" fill="#2563eb" font-weight="600">Питання й таймер</text>
  <path d="M 1085 260 L 1085 365 L 870 365 L 870 470" stroke="#2563eb" stroke-dasharray="5,5" stroke-width="1.5" marker-start="url(#msg-circle)" marker-end="url(#msg-arrow)"/>
  <text x="960" y="355" font-size="10" fill="#2563eb" font-weight="600">Бланк відповідей</text>
  <path d="M 1210 470 L 1210 240" stroke="#059669" stroke-dasharray="5,5" stroke-width="1.5" marker-start="url(#msg-circle)" marker-end="url(#msg-arrow)"/>
  <text x="1215" y="365" font-size="10" fill="#059669" font-weight="600">Результат і ECTS</text>
</svg>